# xmcd
#
# Track frame offsets:
#	150
#	9920
#	21853
#	32191
#	42614
#	52551
#	64529
#	73486
#	84404
#	95152
#	105204
#	117139
#	128476
#	139864
#	149397
#	160541
#	171483
#	179956
#	190545
#	204034
#	213355
#	224340
#	236289
#	248510
#	260909
#	269545
#	283784
#	295466
#	306372
#	317490
#
# Disc length: 4378 seconds
#
# Revision: 0
# Processed by: cddbd v1.4PL0 Copyright (c) Steve Scherf et al.
# Submitted via: EasyCDDAExtractor 4.6.0.1
#
DISCID=b911181e
DTITLE=Various Artist - A Million Dollars Worth Of Doo-Wop  Vol 11
DYEAR=1900
DGENRE=blues
TTITLE0=Castaleers - You're My Dream
TTITLE1=Frankie Val and group - Mr. Echo
TTITLE2=Carousels - I've Cried Enough
TTITLE3=Vibes - Misunderstood
TTITLE4=Joylarks - Betty My Love
TTITLE5=Little Sammy and group - Can You Love Me
TTITLE6=Webs - Question
TTITLE7=Equalos - Patty Patty
TTITLE8=Four Kings (Willie Mitchell and the) - Walking At Your Will
TTITLE9=Calendars - I'm Gonna Laugh At You
TTITLE10=Fairlanes - Writing This Letter
TTITLE11=Corvairs - Love Her So
TTITLE12=Impossibles (Linda Carr and the) - Shy One
TTITLE13=Kings Five - I Hear The Rain
TTITLE14=Varnells - Who Created Love
TTITLE15=Implaceables - My Foolish Pride
TTITLE16=Keystoners - Sleep And Dream
TTITLE17=Mable King and group - Love
TTITLE18=Trinadads - Don't Say Goodbye
TTITLE19=Four Dots (Jerry Stone and the) - Pleading For Your Love
TTITLE20=Johnny Till and group - Love
TTITLE21=Deli-Cados - Now I've Confessed
TTITLE22=Love-Lords - Burning Love
TTITLE23=Kilts - I'll Be True
TTITLE24=Carterays - Bless You
TTITLE25=Velveteers - Tell Me You're Mine
TTITLE26=Dee Impulse and group - Till I Come Home To You
TTITLE27=Royal Masters - You're The One
TTITLE28=Universals - Never Was A Girl
TTITLE29=No-Trends - Together
EXTD=
EXTT0=
EXTT1=
EXTT2=
EXTT3=
EXTT4=
EXTT5=
EXTT6=
EXTT7=
EXTT8=
EXTT9=
EXTT10=
EXTT11=
EXTT12=
EXTT13=
EXTT14=
EXTT15=
EXTT16=
EXTT17=
EXTT18=
EXTT19=
EXTT20=
EXTT21=
EXTT22=
EXTT23=
EXTT24=
EXTT25=
EXTT26=
EXTT27=
EXTT28=
EXTT29=
PLAYORDER=
